<?xml version="1.0" encoding="UTF-8" standalone="no"?>
<!DOCTYPE svg PUBLIC "-//W3C//DTD SVG 1.1//EN"
 "http://www.w3.org/Graphics/SVG/1.1/DTD/svg11.dtd">
<!-- Generated by graphviz version 2.40.1 (20161225.0304)
 -->
<!-- Title: %0 Pages: 1 -->
<svg width="530pt" height="260pt"
 viewBox="0.00 0.00 530.00 260.00" xmlns="http://www.w3.org/2000/svg" xmlns:xlink="http://www.w3.org/1999/xlink">
<g id="graph0" class="graph" transform="scale(1 1) rotate(0) translate(4 256)">
<title>%0</title>
<polygon fill="#ffffff" stroke="transparent" points="-4,4 -4,-256 526,-256 526,4 -4,4"/>
<!-- 1 -->
<g id="node1" class="node">
<title>1</title>
<ellipse fill="none" stroke="#000000" cx="135" cy="-234" rx="27" ry="18"/>
<text text-anchor="middle" x="135" y="-229.8" font-family="Times,serif" font-size="14.00" fill="#000000">1</text>
</g>
<!-- 5 -->
<g id="node2" class="node">
<title>5</title>
<ellipse fill="none" stroke="#000000" cx="135" cy="-162" rx="27" ry="18"/>
<text text-anchor="middle" x="135" y="-157.8" font-family="Times,serif" font-size="14.00" fill="#000000">5</text>
</g>
<!-- 1&#45;&#45;5 -->
<g id="edge1" class="edge">
<title>1&#45;&#45;5</title>
<path fill="none" stroke="#000000" d="M135,-215.8314C135,-205 135,-191.2876 135,-180.4133"/>
</g>
<!-- 2 -->
<g id="node3" class="node">
<title>2</title>
<ellipse fill="none" stroke="#000000" cx="63" cy="-162" rx="27" ry="18"/>
<text text-anchor="middle" x="63" y="-157.8" font-family="Times,serif" font-size="14.00" fill="#000000">2</text>
</g>
<!-- 1&#45;&#45;2 -->
<g id="edge2" class="edge">
<title>1&#45;&#45;2</title>
<path fill="none" stroke="#000000" d="M119.7307,-218.7307C107.512,-206.512 90.4602,-189.4602 78.2473,-177.2473"/>
</g>
<!-- 14 -->
<g id="node4" class="node">
<title>14</title>
<ellipse fill="none" stroke="#000000" cx="207" cy="-162" rx="27" ry="18"/>
<text text-anchor="middle" x="207" y="-157.8" font-family="Times,serif" font-size="14.00" fill="#000000">14</text>
</g>
<!-- 1&#45;&#45;14 -->
<g id="edge3" class="edge">
<title>1&#45;&#45;14</title>
<path fill="none" stroke="#000000" d="M150.2693,-218.7307C162.488,-206.512 179.5398,-189.4602 191.7527,-177.2473"/>
</g>
<!-- 8 -->
<g id="node5" class="node">
<title>8</title>
<ellipse fill="none" stroke="#000000" cx="351" cy="-162" rx="27" ry="18"/>
<text text-anchor="middle" x="351" y="-157.8" font-family="Times,serif" font-size="14.00" fill="#000000">8</text>
</g>
<!-- 1&#45;&#45;8 -->
<g id="edge4" class="edge">
<title>1&#45;&#45;8</title>
<path fill="none" stroke="#000000" d="M155.978,-222.5501C160.8229,-220.1775 166.0192,-217.8425 171,-216 232.872,-193.1121 253.128,-202.8879 315,-180 319.9808,-178.1575 325.1771,-175.8225 330.022,-173.4499"/>
</g>
<!-- 3 -->
<g id="node6" class="node">
<title>3</title>
<ellipse fill="none" stroke="#000000" cx="27" cy="-90" rx="27" ry="18"/>
<text text-anchor="middle" x="27" y="-85.8" font-family="Times,serif" font-size="14.00" fill="#000000">3</text>
</g>
<!-- 2&#45;&#45;3 -->
<g id="edge5" class="edge">
<title>2&#45;&#45;3</title>
<path fill="none" stroke="#000000" d="M54.2854,-144.5708C48.6253,-133.2506 41.2784,-118.5568 35.6343,-107.2687"/>
</g>
<!-- 13 -->
<g id="node7" class="node">
<title>13</title>
<ellipse fill="none" stroke="#000000" cx="99" cy="-90" rx="27" ry="18"/>
<text text-anchor="middle" x="99" y="-85.8" font-family="Times,serif" font-size="14.00" fill="#000000">13</text>
</g>
<!-- 2&#45;&#45;13 -->
<g id="edge6" class="edge">
<title>2&#45;&#45;13</title>
<path fill="none" stroke="#000000" d="M71.7146,-144.5708C77.3747,-133.2506 84.7216,-118.5568 90.3657,-107.2687"/>
</g>
<!-- 11 -->
<g id="node14" class="node">
<title>11</title>
<ellipse fill="none" stroke="#000000" cx="351" cy="-90" rx="27" ry="18"/>
<text text-anchor="middle" x="351" y="-85.8" font-family="Times,serif" font-size="14.00" fill="#000000">11</text>
</g>
<!-- 8&#45;&#45;11 -->
<g id="edge12" class="edge">
<title>8&#45;&#45;11</title>
<path fill="none" stroke="#000000" d="M351,-143.8314C351,-133 351,-119.2876 351,-108.4133"/>
</g>
<!-- 20 -->
<g id="node15" class="node">
<title>20</title>
<ellipse fill="none" stroke="#000000" cx="423" cy="-90" rx="27" ry="18"/>
<text text-anchor="middle" x="423" y="-85.8" font-family="Times,serif" font-size="14.00" fill="#000000">20</text>
</g>
<!-- 8&#45;&#45;20 -->
<g id="edge13" class="edge">
<title>8&#45;&#45;20</title>
<path fill="none" stroke="#000000" d="M366.2693,-146.7307C378.488,-134.512 395.5398,-117.4602 407.7527,-105.2473"/>
</g>
<!-- 19 -->
<g id="node18" class="node">
<title>19</title>
<ellipse fill="none" stroke="#000000" cx="135" cy="-18" rx="27" ry="18"/>
<text text-anchor="middle" x="135" y="-13.8" font-family="Times,serif" font-size="14.00" fill="#000000">19</text>
</g>
<!-- 13&#45;&#45;19 -->
<g id="edge16" class="edge">
<title>13&#45;&#45;19</title>
<path fill="none" stroke="#000000" d="M107.7146,-72.5708C113.3747,-61.2506 120.7216,-46.5568 126.3657,-35.2687"/>
</g>
<!-- 4 -->
<g id="node8" class="node">
<title>4</title>
<ellipse fill="none" stroke="#000000" cx="351" cy="-234" rx="27" ry="18"/>
<text text-anchor="middle" x="351" y="-229.8" font-family="Times,serif" font-size="14.00" fill="#000000">4</text>
</g>
<!-- 4&#45;&#45;8 -->
<g id="edge8" class="edge">
<title>4&#45;&#45;8</title>
<path fill="none" stroke="#000000" d="M351,-215.8314C351,-205 351,-191.2876 351,-180.4133"/>
</g>
<!-- 12 -->
<g id="node9" class="node">
<title>12</title>
<ellipse fill="none" stroke="#000000" cx="423" cy="-162" rx="27" ry="18"/>
<text text-anchor="middle" x="423" y="-157.8" font-family="Times,serif" font-size="14.00" fill="#000000">12</text>
</g>
<!-- 4&#45;&#45;12 -->
<g id="edge7" class="edge">
<title>4&#45;&#45;12</title>
<path fill="none" stroke="#000000" d="M366.2693,-218.7307C378.488,-206.512 395.5398,-189.4602 407.7527,-177.2473"/>
</g>
<!-- 6 -->
<g id="node10" class="node">
<title>6</title>
<ellipse fill="none" stroke="#000000" cx="495" cy="-234" rx="27" ry="18"/>
<text text-anchor="middle" x="495" y="-229.8" font-family="Times,serif" font-size="14.00" fill="#000000">6</text>
</g>
<!-- 17 -->
<g id="node11" class="node">
<title>17</title>
<ellipse fill="none" stroke="#000000" cx="495" cy="-162" rx="27" ry="18"/>
<text text-anchor="middle" x="495" y="-157.8" font-family="Times,serif" font-size="14.00" fill="#000000">17</text>
</g>
<!-- 6&#45;&#45;17 -->
<g id="edge9" class="edge">
<title>6&#45;&#45;17</title>
<path fill="none" stroke="#000000" d="M495,-215.8314C495,-205 495,-191.2876 495,-180.4133"/>
</g>
<!-- 17&#45;&#45;20 -->
<g id="edge19" class="edge">
<title>17&#45;&#45;20</title>
<path fill="none" stroke="#000000" d="M479.7307,-146.7307C467.512,-134.512 450.4602,-117.4602 438.2473,-105.2473"/>
</g>
<!-- 18 -->
<g id="node20" class="node">
<title>18</title>
<ellipse fill="none" stroke="#000000" cx="495" cy="-90" rx="27" ry="18"/>
<text text-anchor="middle" x="495" y="-85.8" font-family="Times,serif" font-size="14.00" fill="#000000">18</text>
</g>
<!-- 17&#45;&#45;18 -->
<g id="edge18" class="edge">
<title>17&#45;&#45;18</title>
<path fill="none" stroke="#000000" d="M495,-143.8314C495,-133 495,-119.2876 495,-108.4133"/>
</g>
<!-- 7 -->
<g id="node12" class="node">
<title>7</title>
<ellipse fill="none" stroke="#000000" cx="207" cy="-234" rx="27" ry="18"/>
<text text-anchor="middle" x="207" y="-229.8" font-family="Times,serif" font-size="14.00" fill="#000000">7</text>
</g>
<!-- 7&#45;&#45;14 -->
<g id="edge11" class="edge">
<title>7&#45;&#45;14</title>
<path fill="none" stroke="#000000" d="M207,-215.8314C207,-205 207,-191.2876 207,-180.4133"/>
</g>
<!-- 16 -->
<g id="node13" class="node">
<title>16</title>
<ellipse fill="none" stroke="#000000" cx="279" cy="-162" rx="27" ry="18"/>
<text text-anchor="middle" x="279" y="-157.8" font-family="Times,serif" font-size="14.00" fill="#000000">16</text>
</g>
<!-- 7&#45;&#45;16 -->
<g id="edge10" class="edge">
<title>7&#45;&#45;16</title>
<path fill="none" stroke="#000000" d="M222.2693,-218.7307C234.488,-206.512 251.5398,-189.4602 263.7527,-177.2473"/>
</g>
<!-- 9 -->
<g id="node16" class="node">
<title>9</title>
<ellipse fill="none" stroke="#000000" cx="423" cy="-234" rx="27" ry="18"/>
<text text-anchor="middle" x="423" y="-229.8" font-family="Times,serif" font-size="14.00" fill="#000000">9</text>
</g>
<!-- 9&#45;&#45;12 -->
<g id="edge14" class="edge">
<title>9&#45;&#45;12</title>
<path fill="none" stroke="#000000" d="M423,-215.8314C423,-205 423,-191.2876 423,-180.4133"/>
</g>
<!-- 10 -->
<g id="node17" class="node">
<title>10</title>
<ellipse fill="none" stroke="#000000" cx="279" cy="-234" rx="27" ry="18"/>
<text text-anchor="middle" x="279" y="-229.8" font-family="Times,serif" font-size="14.00" fill="#000000">10</text>
</g>
<!-- 10&#45;&#45;16 -->
<g id="edge15" class="edge">
<title>10&#45;&#45;16</title>
<path fill="none" stroke="#000000" d="M279,-215.8314C279,-205 279,-191.2876 279,-180.4133"/>
</g>
<!-- 15 -->
<g id="node19" class="node">
<title>15</title>
<ellipse fill="none" stroke="#000000" cx="171" cy="-90" rx="27" ry="18"/>
<text text-anchor="middle" x="171" y="-85.8" font-family="Times,serif" font-size="14.00" fill="#000000">15</text>
</g>
<!-- 15&#45;&#45;19 -->
<g id="edge17" class="edge">
<title>15&#45;&#45;19</title>
<path fill="none" stroke="#000000" d="M162.2854,-72.5708C156.6253,-61.2506 149.2784,-46.5568 143.6343,-35.2687"/>
</g>
</g>
</svg>
